<svg width="1660" height="849" xmlns="http://www.w3.org/2000/svg">
 <!-- Created with Method Draw - http://github.com/duopixel/Method-Draw/ -->
 <defs>
  <linearGradient spreadMethod="pad" y2="1" x2="1" y1="0.25" x1="1" id="svg_7">
   <stop offset="1" stop-color="#ff4e885d"/>
   <stop offset="0" stop-color="#ff4e8825"/>
  </linearGradient>
  <linearGradient spreadMethod="pad" y2="0" x2="1" y1="0.894531" x1="1" id="svg_8">
   <stop offset="1" stop-color="#ff4e888d"/>
   <stop offset="0" stop-color="#ff4e8825"/>
  </linearGradient>
 </defs>
 <g>
  <title>background</title>
  <rect fill="url(#gridpattern)" id="canvas_background" height="851" width="1662" y="-1" x="-1"/>
  <path id="svg_2" d="m-9,561.40625c228,52 190,230 404,228c214,-2 260,-138 400,-140c140,-2 294,152 476,150c182,-2 338,-228 388,-264c50,-36 442,382 52,402c-390,20 -1810,8 -1809,6.59375c-1,1.40625 -139,-434.59375 89,-382.59375z" fill-opacity="0.49" stroke-opacity="null" stroke-width="0" stroke="#000" fill="url(#svg_7)"/>
  <path id="svg_4" d="m47,893.40625c250,-2 222,-234 358,-200c136,34 166,128 362,130c196,2 298,-98 370,-98c72,0 304,108 420,108c116,0 154,-54 153,-55.40625c1,1.40625 19,203.40625 18,202c1,1.40625 -1931,-84.59375 -1681,-86.59375z" fill-opacity="0.49" stroke-opacity="null" stroke-width="0" stroke="#000" fill="url(#svg_8)"/>
 </g>
</svg>