<svg width="420" height="420" 
  xmlns="http://www.w3.org/2000/svg">
  <defs>
    <linearGradient y2="0" x2="1" y1="1" x1="0" id="svg_7">
      <stop offset="0" stop-color="#ff4e89a0" />
      <stop offset="1" stop-color="#ff4e8930" />
    </linearGradient>
  </defs>
  <g>
    <title>background</title>
    <rect fill="none" id="canvas_background" height="422" width="422" y="-1" x="-1"/>
    <g display="none" overflow="visible" y="0" x="0" height="100%" width="100%" id="canvasGrid">
      <rect fill="url(#gridpattern)" stroke-width="0" y="0" x="0" height="100%" width="100%"/>
    </g>
  </g>
  <g>
    <title>Layer 1</title>
    <path id="svg_9" d="m679.5,198.953125c-17,19 -93,230 -87,239c6,9 143,293 362,141c219,-152 527,-363 131,-376c-396,-13 -389,-23 -406,-4z" fill-opacity="null" stroke-opacity="null" stroke-width="1.5" stroke="#000" fill="url(#svg_7)"/>
    <path id="svg_10" d="m221.5,1.453125" opacity="0.5" fill-opacity="null" stroke-opacity="null" stroke-width="1.5" stroke="#000" fill="url(#svg_7)"/>
    <path id="svg_13" d="m188.5,5.453125" opacity="0.5" fill-opacity="null" stroke-opacity="null" stroke-width="0" stroke="#000" fill="url(#svg_7)"/>
    <path stroke="#000" id="svg_14" d="m198.751949,0c-111.664952,0 -199.767576,143.394406 -198.743127,195.260468c1.02445,51.866061 27.828857,222.685007 144.836097,225.735952c117.00724,3.050945 275.188037,-27.42454 274.163588,-168.784983c-1.024449,-141.360442 -108.591605,-252.211437 -220.256558,-252.211437z" fill-opacity="null" stroke-opacity="null" stroke-width="0" fill="url(#svg_7)"/>
    <path id="svg_15" d="m198.333333,46.302083" opacity="0.5" fill-opacity="null" stroke-opacity="null" stroke-width="0" stroke="#000" fill="url(#svg_7)"/>
  </g>
</svg>